<?xml version="1.0" encoding="UTF-8"?>
<!DOCTYPE svg PUBLIC "-//W3C//DTD SVG 1.1//EN" "http://www.w3.org/Graphics/SVG/1.1/DTD/svg11.dtd">
<!-- Creator: CorelDRAW 2019 (64-Bit) -->
<svg xmlns="http://www.w3.org/2000/svg" xml:space="preserve" width="100%" height="100%" version="1.1" style="shape-rendering:geometricPrecision; text-rendering:geometricPrecision; image-rendering:optimizeQuality; fill-rule:evenodd; clip-rule:evenodd"
viewBox="0 0 21000 21000"
 xmlns:xlink="http://www.w3.org/1999/xlink">
 <defs>
  <style type="text/css">
   <![CDATA[
    .fil0 {fill:#3DA8DF}
    .fil1 {fill:#FEFEFE;fill-rule:nonzero}
   ]]>
  </style>
 </defs>
 <g id="Слой_x0020_1">
  <metadata id="CorelCorpID_0Corel-Layer"/>
  <g id="_2620600193904">
   <path class="fil0" d="M8058.69 7543.79l4868.35 0c291.04,0 529.16,238.12 529.16,529.16l0 4868.35c0,291.04 -238.12,529.16 -529.16,529.16l-4868.35 0c-291.04,0 -529.16,-238.12 -529.16,-529.16l0 -4868.35c0,-291.04 238.12,-529.16 529.16,-529.16z"/>
   <path class="fil1" d="M10945.5 9254.77l0 590.4 -704.89 0 0 1914.32 -661.97 0 0 -1914.32 -708.47 0 0 -590.4 2075.33 0zm497.37 1019.78c59.64,-85.88 144.32,-156.25 254.05,-211.11 109.73,-54.87 249.28,-73.95 418.65,-57.25l0 590.39c-121.66,-26.24 -238.55,-22.66 -350.66,10.74 -112.12,33.4 -195.61,91.84 -250.47,175.33l0 976.84 -608.29 0 0 -1717.52 536.72 0 0 232.58z"/>
  </g>
 </g>
</svg>
